<svg width="583" height="597" viewBox="0 0 583 597" fill="none" xmlns="http://www.w3.org/2000/svg">
<path d="M137.714 7.87026C140.977 -2.31197 155.097 -2.68638 159.158 7.16811L208.699 127.382C210.572 131.928 215.316 134.597 220.196 133.924C231.567 132.355 252.804 129.819 275.659 129.104C298.501 128.389 323.012 129.491 340.904 135.224C377.323 146.894 422.132 178.7 436.868 189.603C439.86 191.817 443.756 192.358 447.217 191.001L566.417 144.263C575.644 140.646 584.857 149.569 581.372 158.864C560.144 215.475 505.946 360.62 487.89 414.788C471.842 462.934 470.426 510.371 472.012 545.288C473.309 573.83 452.619 596.892 424.015 596.892H47.9731C25.0261 596.892 4.5164 581.721 2.05998 558.815C-4.86158 494.271 6.85085 410.007 19.4994 373.549C32.1274 337.151 110.678 92.2504 137.714 7.87026ZM231.142 308.825C226.346 308.343 223.436 313.982 226.609 317.61L255.953 351.168C257.794 353.273 260.953 353.592 263.176 351.896L298.62 324.859C302.452 321.935 300.724 315.829 295.928 315.346L231.142 308.825ZM362.548 281.734L332.217 306.796L350.164 311.2L368.931 296.646L378.455 318.143L396.277 322.516L381.907 288.995L413.103 262.559L395.406 258.216L375.43 273.928L365.62 250.907L348.462 249.208L362.548 281.734ZM195.097 226.048C176.329 225.332 160.534 239.966 159.818 258.734C159.102 277.501 173.735 293.295 192.502 294.012C211.27 294.728 227.065 280.095 227.782 261.327C228.498 242.56 213.865 226.765 195.097 226.048Z" fill="white"/>
</svg>
